<svg width="48" height="48" viewBox="0 0 48 48" fill="none" xmlns="http://www.w3.org/2000/svg">
<rect x="1" y="1" width="46" height="46" rx="23" fill="#D9D9D9" fill-opacity="0.19" stroke="#F23030" stroke-width="2"/>
<path d="M25.0504 24.4999L36.8691 12.6812C37.3051 12.2452 37.3051 11.5671 36.8691 11.1312C36.4332 10.6952 35.7551 10.6952 35.3191 11.1312L23.5004 22.9499L11.6816 11.1312C11.2457 10.6952 10.5676 10.6952 10.1316 11.1312C9.6957 11.5671 9.6957 12.2452 10.1316 12.6812L21.9504 24.4999L10.1316 36.3187C9.6957 36.7546 9.6957 37.4327 10.1316 37.8687C10.3254 38.0624 10.616 38.2077 10.9066 38.2077C11.1973 38.2077 11.4879 38.1108 11.6816 37.8687L23.5004 26.0499L35.3191 37.8687C35.5129 38.0624 35.8035 38.2077 36.0941 38.2077C36.3848 38.2077 36.6754 38.1108 36.8691 37.8687C37.3051 37.4327 37.3051 36.7546 36.8691 36.3187L25.0504 24.4999Z" fill="#E10E0E"/>
</svg>
